<svg version="1.2" xmlns="http://www.w3.org/2000/svg" viewBox="0 0 1684 1190" width="1684" height="1190">
	<title>Fixonio-ai</title>
	<style>
		.s0 { fill: #2c2e35 } 
		.s1 { fill: #006ad1 } 
	</style>
	<g id="Layer 1">
		<path id="Fixonio
" class="s0" aria-label="Fixonio"  d="m513.5 571h19.9v-32.9h24.8v-15.5h-24.8v-17.1h33.1v-15.9h-53zm63.5 0h19.8v-64.8h-19.8zm10-71.4c6.9 0 11.7-4.8 11.7-10.7 0-6-4.8-10.8-11.7-10.8-7.1 0-11.9 4.8-11.9 10.8 0 5.9 4.8 10.7 11.9 10.7zm62.5 71.4h22.3l-22.3-32.1 21.7-32.6h-21.5l-10.4 17.9-12.4-17.9h-22.3l21.9 31.7-21.3 33h21.4l10.5-17.9zm93.2-32.4c0-20.5-14.6-33.3-33.6-33.3-18.9 0-33.6 12.8-33.6 33.3 0 20.5 14.3 33.3 33.4 33.3 19 0 33.8-12.8 33.8-33.3zm-47.1 0c0-11 6.3-16.1 13.5-16.1 7 0 13.4 5.1 13.4 16.1 0 10.9-6.6 16.1-13.6 16.1-7.2 0-13.3-5.2-13.3-16.1zm102.3 32.4h19.8v-37.9c0-17.4-10-27.6-25-27.6-8.7 0-15.6 3.9-19.6 9.3v-8.6h-19.8v64.8h19.8v-35.2c0-8.8 4.9-13.7 12.4-13.7 7.6 0 12.4 4.9 12.4 13.7zm33.6 0h19.8v-64.7h-19.8zm9.9-71.5c7 0 11.8-4.7 11.8-10.6 0-6.1-4.8-10.8-11.8-10.8-7 0-11.8 4.7-11.8 10.8 0 5.9 4.8 10.6 11.8 10.6zm87.6 39.1c0-20.5-14.6-33.3-33.6-33.3-18.9 0-33.7 12.8-33.7 33.3 0 20.6 14.4 33.3 33.5 33.3 19 0 33.8-12.7 33.8-33.3zm-47.1 0c0-11 6.3-16.1 13.5-16.1 6.9 0 13.4 5.1 13.4 16.1 0 10.9-6.6 16.1-13.6 16.1-7.2 0-13.3-5.2-13.3-16.1z"/>
		<g id="&lt;Group&gt;">
			<path id="&lt;Path&gt;" class="s1" d="m452.9 488.6c3.5-4 9.5-4.5 13.5-1l24.6 21.1c4 3.4 4.5 9.5 1 13.5-3.4 4-9.4 4.4-13.4 1l-24.6-21.1c-4-3.4-4.5-9.5-1.1-13.5z"/>
			<path id="&lt;Path&gt;" class="s1" d="m436 508.3c3.5-4 9.5-4.5 13.5-1l24.6 21.1c4 3.4 4.5 9.5 1.1 13.5-3.5 4-9.5 4.4-13.5 1l-24.6-21.1c-4-3.5-4.5-9.5-1.1-13.5z"/>
			<path id="&lt;Path&gt;" class="s1" d="m474.4 528.6c3.8 3.3 4.2 9 0.9 12.7l-21.8 25.4c-3.2 3.8-8.9 4.3-12.7 1-3.8-3.2-4.2-8.9-1-12.7l21.8-25.4c3.3-3.8 9-4.2 12.8-1z"/>
		</g>
	</g>
</svg>