<svg fill="#000000" xmlns="http://www.w3.org/2000/svg"  viewBox="0 0 50 50" width="50px" height="50px"><path d="M 17 4 C 16.566406 4 16.183594 4.277344 16.046875 4.691406 L 3.09375 44.691406 C 2.996094 44.996094 3.050781 45.328125 3.238281 45.589844 C 3.425781 45.847656 3.726563 46 4.046875 46 L 16 46 C 16.25 46 16.492188 45.90625 16.675781 45.734375 L 29.675781 33.734375 C 29.679688 33.730469 29.683594 33.730469 29.6875 33.726563 L 33.039063 45.28125 C 33.164063 45.707031 33.554688 46 34 46 L 45.953125 46 C 46.273438 46 46.574219 45.847656 46.761719 45.589844 C 46.949219 45.328125 47.003906 44.996094 46.90625 44.691406 L 33.953125 4.691406 C 33.816406 4.277344 33.433594 4 33 4 Z M 17.726563 6 L 32.273438 6 L 44.578125 44 L 34.75 44 L 25.960938 13.71875 C 25.835938 13.296875 25.453125 13.003906 25.011719 13 C 24.570313 12.996094 24.179688 13.277344 24.046875 13.699219 L 18.046875 32.699219 C 17.949219 33.003906 18.003906 33.335938 18.195313 33.589844 C 18.382813 33.847656 18.679688 34 19 34 L 26.441406 34 L 15.609375 44 L 5.421875 44 Z M 24.957031 17.449219 L 29.1875 32.019531 C 29.128906 32.007813 29.0625 32 29 32 L 20.363281 32 Z"/></svg>