<svg xmlns="http://www.w3.org/2000/svg" viewBox="0 0 276.09 112"><defs><style>.cls-1{font-size:51px;font-family:Poppins-Medium, Poppins;font-weight:500;}.cls-1,.cls-2{fill:#fff;}</style></defs><title>Asset 2</title><g id="Layer_2" data-name="Layer 2"><g id="Layer_1-2" data-name="Layer 1"><text class="cls-1" transform="translate(52.85 65.23)">Fixonio</text><path class="cls-2" d="M35.25,8.72,13.84,30.28c-2.51,2.53-7.31,3.16-10.72,1.42h0C-.29,30-1,26.49,1.5,24L22.91,2.4C25.42-.13,30.22-.76,33.63,1h0C37,2.73,37.77,6.2,35.25,8.72Z"/><path class="cls-2" d="M45.88,11.81c-3.41-1.75-8.21-1.11-10.72,1.42L13.74,34.78a6.31,6.31,0,0,0-.84,1.08c-1.76,1.43-2.08,3.57-.58,5.19l21.86,23.6c1.77,1.91,5.38,2.37,8.07,1l1.5-.75c2.69-1.34,3.44-4,1.67-5.89L27.5,39.68l20-20.13C50,17,49.28,13.56,45.88,11.81Z"/></g></g></svg>