<?xml version="1.0" standalone="no"?>
<svg xmlns:xlink="http://www.w3.org/1999/xlink" id="wave" style="transform:rotate(0deg); transition: 0.3s" viewBox="0 0 1440 490" version="1.1" xmlns="http://www.w3.org/2000/svg"><defs><linearGradient id="sw-gradient-0" x1="0" x2="0" y1="1" y2="0"><stop stop-color="rgba(79, 35, 195, 1)" offset="0%"/><stop stop-color="rgba(79, 35, 195, 0.5)" offset="100%"/></linearGradient></defs><path style="transform:translate(0, 0px); opacity:1" fill="url(#sw-gradient-0)" d="M0,49L17.1,81.7C34.3,114,69,180,103,196C137.1,212,171,180,206,171.5C240,163,274,180,309,196C342.9,212,377,229,411,245C445.7,261,480,278,514,294C548.6,310,583,327,617,318.5C651.4,310,686,278,720,253.2C754.3,229,789,212,823,228.7C857.1,245,891,294,926,269.5C960,245,994,147,1029,155.2C1062.9,163,1097,278,1131,310.3C1165.7,343,1200,294,1234,245C1268.6,196,1303,147,1337,122.5C1371.4,98,1406,98,1440,106.2C1474.3,114,1509,131,1543,147C1577.1,163,1611,180,1646,212.3C1680,245,1714,294,1749,269.5C1782.9,245,1817,147,1851,138.8C1885.7,131,1920,212,1954,220.5C1988.6,229,2023,163,2057,147C2091.4,131,2126,163,2160,204.2C2194.3,245,2229,294,2263,302.2C2297.1,310,2331,278,2366,236.8C2400,196,2434,147,2451,122.5L2468.6,98L2468.6,490L2451.4,490C2434.3,490,2400,490,2366,490C2331.4,490,2297,490,2263,490C2228.6,490,2194,490,2160,490C2125.7,490,2091,490,2057,490C2022.9,490,1989,490,1954,490C1920,490,1886,490,1851,490C1817.1,490,1783,490,1749,490C1714.3,490,1680,490,1646,490C1611.4,490,1577,490,1543,490C1508.6,490,1474,490,1440,490C1405.7,490,1371,490,1337,490C1302.9,490,1269,490,1234,490C1200,490,1166,490,1131,490C1097.1,490,1063,490,1029,490C994.3,490,960,490,926,490C891.4,490,857,490,823,490C788.6,490,754,490,720,490C685.7,490,651,490,617,490C582.9,490,549,490,514,490C480,490,446,490,411,490C377.1,490,343,490,309,490C274.3,490,240,490,206,490C171.4,490,137,490,103,490C68.6,490,34,490,17,490L0,490Z"/></svg>