<?xml version="1.0" standalone="no"?>
<svg xmlns:xlink="http://www.w3.org/1999/xlink" id="wave" style="transform:rotate(0deg); transition: 0.3s" viewBox="0 0 1440 480" version="1.1" xmlns="http://www.w3.org/2000/svg"><defs><linearGradient id="sw-gradient-0" x1="0" x2="0" y1="1" y2="0"><stop stop-color="rgba(79, 35, 195, 1)" offset="0%"/><stop stop-color="rgba(79, 35, 195, 0.5)" offset="100%"/></linearGradient></defs><path style="transform:translate(0, 0px); opacity:1" fill="url(#sw-gradient-0)" d="M0,192L240,184C480,176,960,160,1440,200C1920,240,2400,336,2880,336C3360,336,3840,240,4320,208C4800,176,5280,208,5760,192C6240,176,6720,112,7200,136C7680,160,8160,272,8640,320C9120,368,9600,352,10080,344C10560,336,11040,336,11520,344C12000,352,12480,368,12960,352C13440,336,13920,288,14400,224C14880,160,15360,80,15840,112C16320,144,16800,288,17280,360C17760,432,18240,432,18720,400C19200,368,19680,304,20160,232C20640,160,21120,80,21600,104C22080,128,22560,256,23040,328C23520,400,24000,416,24480,416C24960,416,25440,400,25920,328C26400,256,26880,128,27360,96C27840,64,28320,128,28800,184C29280,240,29760,288,30240,328C30720,368,31200,400,31680,416C32160,432,32640,432,33120,416C33600,400,34080,368,34320,352L34560,336L34560,480L34320,480C34080,480,33600,480,33120,480C32640,480,32160,480,31680,480C31200,480,30720,480,30240,480C29760,480,29280,480,28800,480C28320,480,27840,480,27360,480C26880,480,26400,480,25920,480C25440,480,24960,480,24480,480C24000,480,23520,480,23040,480C22560,480,22080,480,21600,480C21120,480,20640,480,20160,480C19680,480,19200,480,18720,480C18240,480,17760,480,17280,480C16800,480,16320,480,15840,480C15360,480,14880,480,14400,480C13920,480,13440,480,12960,480C12480,480,12000,480,11520,480C11040,480,10560,480,10080,480C9600,480,9120,480,8640,480C8160,480,7680,480,7200,480C6720,480,6240,480,5760,480C5280,480,4800,480,4320,480C3840,480,3360,480,2880,480C2400,480,1920,480,1440,480C960,480,480,480,240,480L0,480Z"/></svg>