<?xml version="1.0" standalone="no"?>
<svg xmlns:xlink="http://www.w3.org/1999/xlink" id="wave" style="transform:rotate(0deg); transition: 0.3s" viewBox="0 0 1440 490" version="1.1" xmlns="http://www.w3.org/2000/svg"><defs><linearGradient id="sw-gradient-0" x1="0" x2="0" y1="1" y2="0"><stop stop-color="rgba(238.382, 236.276, 243.936, 1)" offset="0%"/><stop stop-color="rgba(214.115, 209.713, 225.722, 0.5)" offset="100%"/></linearGradient></defs><path style="transform:translate(0, 0px); opacity:1" fill="url(#sw-gradient-0)" d="M0,196L48,187.8C96,180,192,163,288,204.2C384,245,480,343,576,343C672,343,768,245,864,212.3C960,180,1056,212,1152,196C1248,180,1344,114,1440,138.8C1536,163,1632,278,1728,326.7C1824,376,1920,359,2016,351.2C2112,343,2208,343,2304,351.2C2400,359,2496,376,2592,359.3C2688,343,2784,294,2880,228.7C2976,163,3072,82,3168,114.3C3264,147,3360,294,3456,367.5C3552,441,3648,441,3744,408.3C3840,376,3936,310,4032,236.8C4128,163,4224,82,4320,106.2C4416,131,4512,261,4608,334.8C4704,408,4800,425,4896,424.7C4992,425,5088,408,5184,334.8C5280,261,5376,131,5472,98C5568,65,5664,131,5760,187.8C5856,245,5952,294,6048,334.8C6144,376,6240,408,6336,424.7C6432,441,6528,441,6624,424.7C6720,408,6816,376,6864,359.3L6912,343L6912,490L6864,490C6816,490,6720,490,6624,490C6528,490,6432,490,6336,490C6240,490,6144,490,6048,490C5952,490,5856,490,5760,490C5664,490,5568,490,5472,490C5376,490,5280,490,5184,490C5088,490,4992,490,4896,490C4800,490,4704,490,4608,490C4512,490,4416,490,4320,490C4224,490,4128,490,4032,490C3936,490,3840,490,3744,490C3648,490,3552,490,3456,490C3360,490,3264,490,3168,490C3072,490,2976,490,2880,490C2784,490,2688,490,2592,490C2496,490,2400,490,2304,490C2208,490,2112,490,2016,490C1920,490,1824,490,1728,490C1632,490,1536,490,1440,490C1344,490,1248,490,1152,490C1056,490,960,490,864,490C768,490,672,490,576,490C480,490,384,490,288,490C192,490,96,490,48,490L0,490Z"/></svg>