<?xml version="1.0" standalone="no"?>
<svg xmlns:xlink="http://www.w3.org/1999/xlink" id="wave" style="transform:rotate(0deg); transition: 0.3s" viewBox="0 0 1440 490" version="1.1" xmlns="http://www.w3.org/2000/svg"><defs><linearGradient id="sw-gradient-0" x1="0" x2="0" y1="1" y2="0"><stop stop-color="rgba(238.382, 236.276, 243.936, 1)" offset="0%"/><stop stop-color="rgba(214.115, 209.713, 225.722, 0.5)" offset="100%"/></linearGradient></defs><path style="transform:translate(0, 0px); opacity:1" fill="url(#sw-gradient-0)" d="M0,196L18.5,187.8C36.9,180,74,163,111,204.2C147.7,245,185,343,222,343C258.5,343,295,245,332,212.3C369.2,180,406,212,443,196C480,180,517,114,554,138.8C590.8,163,628,278,665,326.7C701.5,376,738,359,775,351.2C812.3,343,849,343,886,351.2C923.1,359,960,376,997,359.3C1033.8,343,1071,294,1108,228.7C1144.6,163,1182,82,1218,114.3C1255.4,147,1292,294,1329,367.5C1366.2,441,1403,441,1440,408.3C1476.9,376,1514,310,1551,236.8C1587.7,163,1625,82,1662,106.2C1698.5,131,1735,261,1772,334.8C1809.2,408,1846,425,1883,424.7C1920,425,1957,408,1994,334.8C2030.8,261,2068,131,2105,98C2141.5,65,2178,131,2215,187.8C2252.3,245,2289,294,2326,334.8C2363.1,376,2400,408,2437,424.7C2473.8,441,2511,441,2548,424.7C2584.6,408,2622,376,2640,359.3L2658.5,343L2658.5,490L2640,490C2621.5,490,2585,490,2548,490C2510.8,490,2474,490,2437,490C2400,490,2363,490,2326,490C2289.2,490,2252,490,2215,490C2178.5,490,2142,490,2105,490C2067.7,490,2031,490,1994,490C1956.9,490,1920,490,1883,490C1846.2,490,1809,490,1772,490C1735.4,490,1698,490,1662,490C1624.6,490,1588,490,1551,490C1513.8,490,1477,490,1440,490C1403.1,490,1366,490,1329,490C1292.3,490,1255,490,1218,490C1181.5,490,1145,490,1108,490C1070.8,490,1034,490,997,490C960,490,923,490,886,490C849.2,490,812,490,775,490C738.5,490,702,490,665,490C627.7,490,591,490,554,490C516.9,490,480,490,443,490C406.2,490,369,490,332,490C295.4,490,258,490,222,490C184.6,490,148,490,111,490C73.8,490,37,490,18,490L0,490Z"/></svg>